<?xml version="1.0" standalone="no"?>
<!DOCTYPE svg PUBLIC "-//W3C//DTD SVG 20010904//EN"
 "http://www.w3.org/TR/2001/REC-SVG-20010904/DTD/svg10.dtd">
<svg version="1.0" xmlns="http://www.w3.org/2000/svg"
 width="336.000000pt" height="336.000000pt" viewBox="0 0 336.000000 336.000000"
 preserveAspectRatio="xMidYMid meet">

<g transform="translate(0.000000,336.000000) scale(0.100000,-0.100000)"
fill="#000000" stroke="none">
<path d="M2095 2818 c-143 -22 -263 -43 -267 -46 -4 -4 -10 -89 -14 -189 l-7
-183 -69 0 -68 0 0 -54 0 -54 -67 34 c-116 59 -205 77 -383 77 -170 0 -245
-12 -404 -65 -92 -31 -240 -98 -308 -140 l-38 -23 46 -80 c26 -44 71 -121 101
-172 l53 -91 84 52 c103 65 222 105 331 113 93 7 143 -5 165 -39 8 -14 15 -58
18 -113 l4 -90 -116 -2 c-134 -2 -211 -14 -317 -49 -176 -57 -301 -169 -359
-319 -31 -79 -34 -248 -6 -340 71 -236 250 -355 536 -355 149 0 266 32 365 99
l43 29 58 -57 c33 -31 79 -67 104 -79 l44 -22 109 108 109 107 17 -25 c87
-133 209 -181 461 -184 172 -1 272 17 411 76 l46 19 -34 162 c-18 88 -35 162
-36 164 -2 1 -25 -4 -52 -12 -107 -33 -201 -11 -240 55 -19 33 -20 54 -23 467
l-3 432 118 3 117 3 37 183 36 182 -154 0 -155 0 4 230 c3 225 3 230 -17 229
-11 -1 -137 -19 -280 -41z m-827 -1555 l-3 -148 -40 -20 c-55 -27 -131 -26
-172 3 -34 24 -63 86 -63 134 0 51 35 112 79 136 36 21 112 38 174 41 l28 1
-3 -147z"/>
</g>
</svg>
